<svg width="288" height="297" viewBox="0 0 288 297" fill="none" xmlns="http://www.w3.org/2000/svg">
<g filter="url(#filter0_b_175_966)">
<mask id="path-1-inside-1_175_966" fill="white">
<path fill-rule="evenodd" clip-rule="evenodd" d="M16 0C7.16344 0 0 7.16344 0 16V22V22.1538V273C0 286.255 10.7452 297 24 297H264C277.255 297 288 286.255 288 273V46C288 32.7452 277.255 22 264 22H149.462L142.884 8.84458C140.174 3.42404 134.633 0 128.573 0H16Z"/>
</mask>
<path fill-rule="evenodd" clip-rule="evenodd" d="M16 0C7.16344 0 0 7.16344 0 16V22V22.1538V273C0 286.255 10.7452 297 24 297H264C277.255 297 288 286.255 288 273V46C288 32.7452 277.255 22 264 22H149.462L142.884 8.84458C140.174 3.42404 134.633 0 128.573 0H16Z" fill="white" fill-opacity="0.01"/>
<path d="M149.462 22L148.567 22.4472L148.844 23H149.462V22ZM142.884 8.84458L143.778 8.39737V8.39737L142.884 8.84458ZM1 16C1 7.71573 7.71573 1 16 1V-1C6.61116 -1 -1 6.61116 -1 16H1ZM1 22V16H-1V22H1ZM1 22.1538V22H-1V22.1538H1ZM1 273V22.1538H-1V273H1ZM24 296C11.2974 296 1 285.703 1 273H-1C-1 286.807 10.1929 298 24 298V296ZM264 296H24V298H264V296ZM287 273C287 285.703 276.703 296 264 296V298C277.807 298 289 286.807 289 273H287ZM287 46V273H289V46H287ZM264 23C276.703 23 287 33.2975 287 46H289C289 32.1929 277.807 21 264 21V23ZM149.462 23H264V21H149.462V23ZM141.989 9.2918L148.567 22.4472L150.356 21.5528L143.778 8.39737L141.989 9.2918ZM128.573 1C134.255 1 139.449 4.21004 141.989 9.2918L143.778 8.39737C140.899 2.63804 135.012 -1 128.573 -1V1ZM16 1H128.573V-1H16V1Z" fill="white" mask="url(#path-1-inside-1_175_966)"/>
</g>
<defs>
<filter id="filter0_b_175_966" x="-50" y="-50" width="388" height="397" filterUnits="userSpaceOnUse" color-interpolation-filters="sRGB">
<feFlood flood-opacity="0" result="BackgroundImageFix"/>
<feGaussianBlur in="BackgroundImageFix" stdDeviation="25"/>
<feComposite in2="SourceAlpha" operator="in" result="effect1_backgroundBlur_175_966"/>
<feBlend mode="normal" in="SourceGraphic" in2="effect1_backgroundBlur_175_966" result="shape"/>
</filter>
</defs>
</svg>
